<svg width="48" height="48" viewBox="0 0 48 48" fill="none" xmlns="http://www.w3.org/2000/svg">
<path d="M24.6105 40.7999C24.1035 40.7999 23.675 40.6275 23.325 40.2825C22.975 39.9375 22.8 39.5099 22.8 38.9999V30.5999C22.8 30.0899 22.9714 29.6625 23.3144 29.3175C23.6574 28.9725 24.0824 28.7999 24.5894 28.7999C25.0964 28.7999 25.525 28.9725 25.875 29.3175C26.225 29.6625 26.4 30.0899 26.4 30.5999V32.9999H38.9858C39.4952 32.9999 39.9249 33.1714 40.2749 33.5144C40.6249 33.8574 40.7999 34.2824 40.7999 34.7894C40.7999 35.2964 40.6275 35.7249 40.2825 36.0749C39.9375 36.4249 39.5099 36.5999 38.9999 36.5999H26.4V38.9999C26.4 39.5099 26.2285 39.9375 25.8855 40.2825C25.5425 40.6275 25.1175 40.7999 24.6105 40.7999ZM8.99995 36.5999C8.48995 36.5999 8.06245 36.4285 7.71745 36.0855C7.37245 35.7425 7.19995 35.3175 7.19995 34.8105C7.19995 34.3035 7.37245 33.8749 7.71745 33.5249C8.06245 33.1749 8.48995 32.9999 8.99995 32.9999H17.4C17.91 32.9999 18.3375 33.1714 18.6825 33.5144C19.0275 33.8574 19.2 34.2824 19.2 34.7894C19.2 35.2964 19.0275 35.7249 18.6825 36.0749C18.3375 36.4249 17.91 36.5999 17.4 36.5999H8.99995ZM16.2105 29.9999C15.7035 29.9999 15.275 29.8274 14.925 29.4824C14.575 29.1374 14.4 28.7099 14.4 28.1999V25.8H9.0131C8.50433 25.8 8.07495 25.6285 7.72495 25.2855C7.37495 24.9425 7.19995 24.5175 7.19995 24.0105C7.19995 23.5035 7.37245 23.075 7.71745 22.725C8.06245 22.375 8.48995 22.2 8.99995 22.2H14.4V19.8C14.4 19.29 14.5714 18.8624 14.9144 18.5174C15.2574 18.1724 15.6824 18 16.1894 18C16.6964 18 17.125 18.1724 17.475 18.5174C17.825 18.8624 18 19.29 18 19.8V28.1999C18 28.7099 17.8285 29.1374 17.4855 29.4824C17.1425 29.8274 16.7175 29.9999 16.2105 29.9999ZM23.4 25.8C22.89 25.8 22.4625 25.6285 22.1175 25.2855C21.7725 24.9425 21.6 24.5175 21.6 24.0105C21.6 23.5035 21.7725 23.075 22.1175 22.725C22.4625 22.375 22.89 22.2 23.4 22.2H38.9999C39.5099 22.2 39.9375 22.3714 40.2825 22.7144C40.6275 23.0574 40.7999 23.4824 40.7999 23.9894C40.7999 24.4964 40.6275 24.925 40.2825 25.275C39.9375 25.625 39.5099 25.8 38.9999 25.8H23.4ZM30.6105 19.2C30.1035 19.2 29.6749 19.0275 29.3249 18.6825C28.9749 18.3375 28.7999 17.91 28.7999 17.4V8.99995C28.7999 8.48995 28.9714 8.06245 29.3144 7.71745C29.6574 7.37245 30.0824 7.19995 30.5894 7.19995C31.0964 7.19995 31.5249 7.37245 31.8749 7.71745C32.2249 8.06245 32.3999 8.48995 32.3999 8.99995V11.4H38.9999C39.5099 11.4 39.9375 11.5714 40.2825 11.9144C40.6275 12.2574 40.7999 12.6824 40.7999 13.1894C40.7999 13.6964 40.6275 14.125 40.2825 14.475C39.9375 14.825 39.5099 15 38.9999 15H32.3999V17.4C32.3999 17.91 32.2285 18.3375 31.8855 18.6825C31.5425 19.0275 31.1175 19.2 30.6105 19.2ZM8.99995 15C8.48995 15 8.06245 14.8285 7.71745 14.4855C7.37245 14.1425 7.19995 13.7175 7.19995 13.2105C7.19995 12.7035 7.37245 12.275 7.71745 11.925C8.06245 11.575 8.48995 11.4 8.99995 11.4H24.6C25.11 11.4 25.5375 11.5714 25.8825 11.9144C26.2275 12.2574 26.4 12.6824 26.4 13.1894C26.4 13.6964 26.2275 14.125 25.8825 14.475C25.5375 14.825 25.11 15 24.6 15H8.99995Z" fill="white"/>
</svg>
