<svg width="48" height="48" viewBox="0 0 48 48" fill="none" xmlns="http://www.w3.org/2000/svg">
<path d="M17.6 28.5501C14.6667 28.5501 12.1667 27.5251 10.1 25.4751C8.03333 23.4251 7 20.9167 7 17.95C7 17.5834 7.025 17.2167 7.075 16.85C7.125 16.4834 7.18333 16.1334 7.25 15.8C7.31667 15.5667 7.425 15.3834 7.575 15.25C7.725 15.1167 7.9 15.0334 8.1 15C8.3 14.9334 8.5 14.925 8.7 14.975C8.9 15.025 9.08333 15.1334 9.25 15.3L14.8 20.7501L20.5 15.15L15 9.60005C14.8333 9.43338 14.725 9.25005 14.675 9.05005C14.625 8.85005 14.6333 8.65005 14.7 8.45005C14.7333 8.25005 14.825 8.07505 14.975 7.92505C15.125 7.77505 15.3 7.66672 15.5 7.60005C15.8333 7.53338 16.175 7.46672 16.525 7.40005C16.875 7.33338 17.2333 7.30005 17.6 7.30005C20.5667 7.30005 23.0917 8.34172 25.175 10.425C27.2583 12.5084 28.3 15.0167 28.3 17.95C28.3 18.95 28.1917 19.8584 27.975 20.6751C27.7583 21.4917 27.45 22.2667 27.05 23.0001L39.45 35.4001C40.05 36.0001 40.35 36.7334 40.35 37.6001C40.35 38.4667 40.0333 39.2001 39.4 39.8001C38.8 40.3667 38.0833 40.6501 37.25 40.6501C36.4167 40.6501 35.7 40.3501 35.1 39.7501L22.65 27.3001C21.85 27.6667 21.0417 27.9667 20.225 28.2001C19.4083 28.4334 18.5333 28.5501 17.6 28.5501Z" fill="white"/>
</svg>
